# xmcd
#
# Track frame offsets:
#	150
#	16702
#	35987
#	50186
#	65370
#	79284
#	94377
#	109023
#	129857
#	142764
#	157320
#	174185
#
# Disc length: 2489 seconds
#
# Revision: 0
# Processed by: cddbd v1.5.2PL0 Copyright (c) Steve Scherf et al.
# Submitted via: audiograbber 1.83.01
#
DISCID=9f09b70c
DTITLE=Abie Budgen - Weeping Willow
DYEAR=2008
DGENRE=Blues
TTITLE0=Weeping Willow
TTITLE1=Spike Driver Blues
TTITLE2=What's The Matter Blues
TTITLE3=Nothing in Ramblin'
TTITLE4=Crow Jane
TTITLE5=Keep Your Lamp Trimmed and Burning
TTITLE6=Stack O Lee Blues
TTITLE7=Make Me A Pallet On The Floor
TTITLE8=Bill Bailey
TTITLE9=Just A Dream
TTITLE10=Last Kind Words
TTITLE11=Cairo Blues
EXTD=
EXTT0=
EXTT1=
EXTT2=
EXTT3=
EXTT4=
EXTT5=
EXTT6=
EXTT7=
EXTT8=
EXTT9=
EXTT10=
EXTT11=
PLAYORDER=
